<svg id="Group_117" data-name="Group 117" xmlns="http://www.w3.org/2000/svg" width="57.143" height="55.374" viewBox="0 0 57.143 55.374">
  <g id="noun-art-3381175">
    <path id="Path_420" data-name="Path 420" d="M103.012,53.195c-2.078-.3-3.86-2.177-4.652-4.058a10.281,10.281,0,0,1,.693-8.016,9.918,9.918,0,0,1,6.928-5.245,27.926,27.926,0,0,0,.2,3.86c.594,2.672,2.573,4.849,2.672,7.621a6.025,6.025,0,0,1-3.761,5.839A14.493,14.493,0,0,1,103.012,53.195Z" transform="translate(-97.848 -35.875)" fill="#fff"/>
    <path id="Path_421" data-name="Path 421" d="M116.329,209.856a78.323,78.323,0,0,1-.891,11.678,99.023,99.023,0,0,1-3.266,11.58c-.1.2-.4.2-.4,0a111.386,111.386,0,0,1-3.266-11.58,76.369,76.369,0,0,1-.891-11.678A130.81,130.81,0,0,1,108.907,196a5.753,5.753,0,0,0,2.474.891,3.367,3.367,0,0,0,.99.1,5.6,5.6,0,0,0,1.781-.3,4.138,4.138,0,0,0,.99-.4c.2,1.583,1.188,9.9,1.188,13.559Z" transform="translate(-106.515 -177.889)" fill="#fff"/>
    <path id="Path_422" data-name="Path 422" d="M247.989,85.677a23.11,23.11,0,0,0-18.111-7.225A24.215,24.215,0,0,0,218.2,82.114c-5.542,3.563-9.5,9.8-8.511,16.527.792,5.443,5.245,9.4,10.392,10.887,1.485.4,3.167.99,2.969,2.87-.495,2.969-4.948,3.761-3.464,7.225,1.583,3.761,7.423,4.355,10.986,4.454a22.849,22.849,0,0,0,22.466-29.789,22.051,22.051,0,0,0-5.047-8.61Zm-26.82,11.58a3.015,3.015,0,1,1-1.583-3.959A2.907,2.907,0,0,1,221.169,97.257Zm11.381,18.111a3.012,3.012,0,1,1-2.177-3.662A2.905,2.905,0,0,1,232.549,115.367Zm-2.078-26.128a3.019,3.019,0,1,1,2.969-3.068A3,3,0,0,1,230.471,89.239Zm15.735,21.179a3.022,3.022,0,1,1-.4-4.256A3,3,0,0,1,246.206,110.419Zm-.594-14.647A3.032,3.032,0,1,1,247,91.714,3.111,3.111,0,0,1,245.613,95.771Z" transform="translate(-196.903 -73.603)" fill="#fff"/>
  </g>
</svg>
