<svg id="noun-children-1712721" xmlns="http://www.w3.org/2000/svg" width="63.07" height="45.007" viewBox="0 0 63.07 45.007">
  <path id="Path_444" data-name="Path 444" d="M212.829,127.414a7.014,7.014,0,1,1-7.014-7.014,7.014,7.014,0,0,1,7.014,7.014" transform="translate(-188.555 -120.4)" fill="#fff"/>
  <path id="Path_445" data-name="Path 445" d="M415.549,127.414a7.014,7.014,0,1,1-7.014-7.014,7.014,7.014,0,0,1,7.014,7.014" transform="translate(-362.744 -120.4)" fill="#fff"/>
  <path id="Path_446" data-name="Path 446" d="M188.187,164.828a3,3,0,0,0-4.256,0L176.759,172a6.9,6.9,0,0,1-9.852,0l-7.093-7.093a3.311,3.311,0,0,0-4.493,0l-7.172,7.172a6.9,6.9,0,0,1-9.852,0l-7.093-7.093a3,3,0,0,0-4.256-.079,2.956,2.956,0,0,0,0,4.335l9.379,9.379v21.122a2.982,2.982,0,0,0,3.074,3.074,2.927,2.927,0,0,0,2.916-3v-9.38a.946.946,0,1,1,1.891,0v9.221a2.982,2.982,0,0,0,3.074,3.074,2.927,2.927,0,0,0,2.916-3v-21.28l7.329-7.329,7.329,7.329-3.7,15.684h3.783v5.517a2.982,2.982,0,0,0,3.074,3.074,2.927,2.927,0,0,0,2.916-3v-5.517h1.892v5.517a2.982,2.982,0,0,0,3.074,3.074,2.927,2.927,0,0,0,2.916-3V194.3h3.783l-3.782-15.842,9.379-9.379a3,3,0,0,0,0-4.256Z" transform="translate(-126.003 -157.813)" fill="#fff"/>
</svg>
