<svg xmlns="http://www.w3.org/2000/svg" xmlns:xlink="http://www.w3.org/1999/xlink" width="275.677" height="88.204" viewBox="0 0 275.677 88.204">
  <defs>
    <clipPath id="clip-path">
      <rect id="Rectangle_9" data-name="Rectangle 9" width="275.677" height="88.204" transform="translate(577.18 -1170.55)" fill="#fff"/>
    </clipPath>
  </defs>
  <g id="Group_32" data-name="Group 32" transform="translate(-577.18 1170.55)">
    <g id="Group_12" data-name="Group 12" clip-path="url(#clip-path)">
      <path id="Path_25" data-name="Path 25" d="M803.911-1144.641l12.974-15.648-6.279-6.407a1.391,1.391,0,0,0-1.135-.433H783.756a.92.92,0,0,0-.636,1.555c5.239,5.27,20.791,20.933,20.791,20.933" fill="#fff"/>
      <path id="Path_26" data-name="Path 26" d="M849.178-1126.991l-34.285-35.347-.05-.051a.9.9,0,0,0-1.273,0c-3.2,3.862-61.5,74.142-62.025,74.812s-.366,1.556.906,1.556h55.507a2.121,2.121,0,0,0,1.724-.674c.312-.317,36.544-36,39.5-39.007a.93.93,0,0,0,0-1.289" fill="#fff"/>
      <path id="Path_27" data-name="Path 27" d="M594.02-1112.25a2.15,2.15,0,0,0-.586-1.516A1.877,1.877,0,0,0,592-1114.4a1.883,1.883,0,0,0-1.423.633,2.133,2.133,0,0,0-.6,1.516,2.138,2.138,0,0,0,.6,1.516,1.882,1.882,0,0,0,1.423.632,1.876,1.876,0,0,0,1.431-.632,2.155,2.155,0,0,0,.586-1.516" fill="#fff"/>
      <path id="Path_28" data-name="Path 28" d="M588.906-1110.734a2.139,2.139,0,0,0,.594-1.516,2.137,2.137,0,0,0-.594-1.516,1.885,1.885,0,0,0-1.423-.633,1.887,1.887,0,0,0-1.424.633,2.138,2.138,0,0,0-.6,1.516,2.14,2.14,0,0,0,.6,1.516,1.886,1.886,0,0,0,1.424.632,1.884,1.884,0,0,0,1.423-.632" fill="#fff"/>
      <path id="Path_29" data-name="Path 29" d="M614.961-1121.762a5.121,5.121,0,0,0,3.871-1.706,5.814,5.814,0,0,0,1.6-4.124v-9.161a3.221,3.221,0,0,0-2.447,1.082,3.7,3.7,0,0,0-1.01,2.616v5.463a2.137,2.137,0,0,1-.594,1.516,1.885,1.885,0,0,1-1.423.633H602.387a1.884,1.884,0,0,1-1.424-.633,2.137,2.137,0,0,1-.594-1.516v-9.161h-1.892q-5.115.284-7.71,2.965a8.663,8.663,0,0,0-2.6,6.213,5.768,5.768,0,0,0,1.3,3.748,5.442,5.442,0,0,0,3.285,1.982c.072.011.187.019.344.025s.329.008.517.008a.425.425,0,0,1,.374.275.453.453,0,0,1-.094.475,5.53,5.53,0,0,1-4.566,1.749,5.627,5.627,0,0,1-3.613-1.833,6.313,6.313,0,0,1-1.642-3.88,6.44,6.44,0,0,1,.688-3.365,3.869,3.869,0,0,0-.266-4.031l-.485-.666a10.144,10.144,0,0,0-3.41,8.162,10.169,10.169,0,0,0,2.754,6.47,8.9,8.9,0,0,0,6.1,2.841,8.954,8.954,0,0,0,6.912-2.865,4.069,4.069,0,0,0,1.127-2.94,4.448,4.448,0,0,0-1.111-2.816,3.469,3.469,0,0,0-2.752-1.207H593.6a.041.041,0,0,1-.031-.017.993.993,0,0,1-.172-.016l-.2-.034a1.492,1.492,0,0,1-.165-.033,2.141,2.141,0,0,1-1.017-.783,2.107,2.107,0,0,1-.39-1.249,5,5,0,0,1,1.016-2.94,5.57,5.57,0,0,1,2.972-2.041,9.754,9.754,0,0,1,1.235-.249.113.113,0,0,0,.063-.018v5.231a5.814,5.814,0,0,0,1.6,4.124,5.116,5.116,0,0,0,3.762,1.7v.011h12.684Z" fill="#fff"/>
      <path id="Path_30" data-name="Path 30" d="M613.913-1118.764a2.137,2.137,0,0,0-.594,1.516,2.139,2.139,0,0,0,.594,1.516,1.884,1.884,0,0,0,1.423.634,1.888,1.888,0,0,0,1.424-.634,2.138,2.138,0,0,0,.593-1.516,2.137,2.137,0,0,0-.593-1.516,1.886,1.886,0,0,0-1.424-.632,1.882,1.882,0,0,0-1.423.632" fill="#fff"/>
      <path id="Path_31" data-name="Path 31" d="M638.436-1129.258a7.4,7.4,0,0,0-1.955-5.171,6.882,6.882,0,0,0-4.863-2.308h-.22a6.129,6.129,0,0,0-.641.034,8.545,8.545,0,0,0-5.365,2.514l.485.584a3.163,3.163,0,0,0,3.6.933,5.054,5.054,0,0,1,1.548-.367h.047c.114-.01.219-.016.313-.016h.14a3.45,3.45,0,0,1,2.432,1.124,3.935,3.935,0,0,1,1.024,2.607,3.882,3.882,0,0,1-1.031,2.7,3.576,3.576,0,0,1-2.518,1.183h-4.379a3.243,3.243,0,0,0-2.44,1.075,3.652,3.652,0,0,0-1.017,2.606h8.024a6.88,6.88,0,0,0,4.863-2.306,7.424,7.424,0,0,0,1.955-5.19" fill="#fff"/>
      <path id="Path_32" data-name="Path 32" d="M650.509-1140.084a1.881,1.881,0,0,0,1.423-.632,2.14,2.14,0,0,0,.595-1.516,2.138,2.138,0,0,0-.595-1.516,1.883,1.883,0,0,0-1.423-.634,1.886,1.886,0,0,0-1.423.634,2.137,2.137,0,0,0-.594,1.516,2.139,2.139,0,0,0,.594,1.516,1.884,1.884,0,0,0,1.423.632" fill="#fff"/>
      <path id="Path_33" data-name="Path 33" d="M655.029-1140.084a1.876,1.876,0,0,0,1.431-.632,2.155,2.155,0,0,0,.587-1.516,2.153,2.153,0,0,0-.587-1.516,1.878,1.878,0,0,0-1.431-.634,1.886,1.886,0,0,0-1.423.634,2.137,2.137,0,0,0-.594,1.516,2.139,2.139,0,0,0,.594,1.516,1.884,1.884,0,0,0,1.423.632" fill="#fff"/>
      <path id="Path_34" data-name="Path 34" d="M677.926-1118.764a2.138,2.138,0,0,0-.6,1.516,2.14,2.14,0,0,0,.6,1.516,1.884,1.884,0,0,0,1.423.634,1.877,1.877,0,0,0,1.431-.634,2.154,2.154,0,0,0,.586-1.516,2.152,2.152,0,0,0-.586-1.516,1.875,1.875,0,0,0-1.431-.632,1.882,1.882,0,0,0-1.423.632" fill="#fff"/>
      <path id="Path_35" data-name="Path 35" d="M676.846-1117.248a2.137,2.137,0,0,0-.594-1.516,1.883,1.883,0,0,0-1.423-.631,1.881,1.881,0,0,0-1.423.631,2.138,2.138,0,0,0-.6,1.516,2.139,2.139,0,0,0,.6,1.517,1.883,1.883,0,0,0,1.423.633,1.885,1.885,0,0,0,1.423-.633,2.137,2.137,0,0,0,.594-1.517" fill="#fff"/>
      <path id="Path_36" data-name="Path 36" d="M674.673-1121.762h3.675a5.121,5.121,0,0,0,3.871-1.706,5.815,5.815,0,0,0,1.6-4.124v-9.161a3.223,3.223,0,0,0-2.448,1.082,3.7,3.7,0,0,0-1.009,2.616v5.463a2.137,2.137,0,0,1-.594,1.516,1.886,1.886,0,0,1-1.423.633H660.191a1.877,1.877,0,0,1-1.431-.633,2.148,2.148,0,0,1-.587-1.516v-10.527a14.031,14.031,0,0,0-6.592,1.4,9.741,9.741,0,0,0-3.988,3.69,9.6,9.6,0,0,0-1.337,4.923,6.32,6.32,0,0,0,1.744,4.48,5.559,5.559,0,0,0,4.214,1.866h3.457a3.679,3.679,0,0,0-1.017-2.614,3.3,3.3,0,0,0-2.44-1.067,2.338,2.338,0,0,1-1.767-.783,2.649,2.649,0,0,1-.734-1.882q0-4.348,4.988-5.9v6.413a5.8,5.8,0,0,0,1.611,4.124,5.144,5.144,0,0,0,3.879,1.706h14.482Z" fill="#fff"/>
      <path id="Path_37" data-name="Path 37" d="M712.082-1121.762a5.066,5.066,0,0,0,3.738-1.583,5.105,5.105,0,0,0,3.691,1.583h16.546a5.118,5.118,0,0,0,3.87-1.706,5.811,5.811,0,0,0,1.6-4.124v-9.161a3.224,3.224,0,0,0-2.448,1.082,3.7,3.7,0,0,0-1.009,2.616v5.463a2.137,2.137,0,0,1-.594,1.516,1.885,1.885,0,0,1-1.423.633H719.573a1.9,1.9,0,0,1-1.424-.625,2.127,2.127,0,0,1-.593-1.524v-18.989a3.242,3.242,0,0,0-2.44,1.074,3.661,3.661,0,0,0-1.017,2.608v15.307a2.142,2.142,0,0,1-.586,1.524,1.887,1.887,0,0,1-1.431.625h-9.055a1.88,1.88,0,0,1-1.422-.633,2.13,2.13,0,0,1-.595-1.516v-1.732a7.405,7.405,0,0,0-1.955-5.114,6.9,6.9,0,0,0-4.864-2.3h-.219a6.13,6.13,0,0,0-.641.034,8.542,8.542,0,0,0-5.365,2.515l.485.583a3.162,3.162,0,0,0,3.6.933,5.026,5.026,0,0,1,1.548-.367h.047c.114-.01.218-.016.313-.016h.14a3.45,3.45,0,0,1,2.432,1.124,3.943,3.943,0,0,1,1.024,2.607,3.879,3.879,0,0,1-1.032,2.7,3.574,3.574,0,0,1-2.517,1.183h-4.38a3.239,3.239,0,0,0-2.439,1.075,3.652,3.652,0,0,0-1.017,2.606h8.023a6.807,6.807,0,0,0,4.551-1.982c.1.122.214.244.328.366a4.857,4.857,0,0,0,3.675,1.616h9.337Z" fill="#fff"/>
      <path id="Path_38" data-name="Path 38" d="M735.009-1118.764a2.137,2.137,0,0,0-.594,1.516,2.139,2.139,0,0,0,.594,1.516,1.884,1.884,0,0,0,1.423.634,1.888,1.888,0,0,0,1.424-.634,2.138,2.138,0,0,0,.593-1.516,2.136,2.136,0,0,0-.593-1.516,1.886,1.886,0,0,0-1.424-.632,1.882,1.882,0,0,0-1.423.632" fill="#fff"/>
      <path id="Path_39" data-name="Path 39" d="M584.2-1098.244h-3.6v12.32h3.52c3.152,0,5.987-1.883,5.987-6.16,0-4.752-2.467-6.16-5.9-6.16m-.5,10h-.734v-7.681H584.2c2.17,0,3.337.951,3.337,3.841,0,3.155-1.285,3.84-3.837,3.84" fill="#fff"/>
      <path id="Path_40" data-name="Path 40" d="M598.894-1091.077c0,1.616-.483,3.174-2.368,3.174-1.936,0-2.469-1.425-2.469-3.364v-6.978h-2.369v7.3c0,2.89,1.284,5.285,4.687,5.285,2.736,0,4.887-1.444,4.887-5.342v-7.244h-2.368Z" fill="#fff"/>
      <path id="Path_41" data-name="Path 41" d="M609.648-1092.407a2.712,2.712,0,0,0,1.669-2.567c0-1.939-1.351-3.27-3.97-3.27h-3.953v12.32h4.236c2.653,0,4.12-1.312,4.12-3.612a2.882,2.882,0,0,0-2.1-2.871m-3.886-3.709h1.552c1.051,0,1.6.5,1.6,1.369,0,1.142-.784,1.5-1.835,1.5h-1.318Zm1.668,8.024h-1.668v-3.118H607.5c1.269,0,1.818.666,1.818,1.54,0,.855-.433,1.578-1.885,1.578" fill="#fff"/>
      <path id="Path_42" data-name="Path 42" d="M616.217-1098.245l-3.886,12.168v.152h2.485l.851-2.948h4l.866,2.948h2.52v-.152l-3.887-12.168Zm.084,7.206,1.351-4.7,1.384,4.7Z" fill="#fff"/>
      <rect id="Rectangle_5" data-name="Rectangle 5" width="2.368" height="12.32" transform="translate(624.454 -1098.244)" fill="#fff"/>
      <path id="Path_43" data-name="Path 43" d="M639.729-1092.845a18.345,18.345,0,0,0-.935,2.434,21.9,21.9,0,0,0-.933-2.434l-2.469-5.4h-2.435v12.319h2.3v-7.662c.15.457.367,1.008.734,1.844l1.9,4.3h1.818l1.87-4.3a17.783,17.783,0,0,0,.733-1.844v7.662h2.336v-12.319h-2.436Z" fill="#fff"/>
      <path id="Path_44" data-name="Path 44" d="M653.987-1091.077c0,1.616-.483,3.174-2.368,3.174-1.936,0-2.469-1.425-2.469-3.364v-6.978h-2.369v7.3c0,2.89,1.284,5.285,4.687,5.285,2.736,0,4.887-1.444,4.887-5.342v-7.244h-2.368Z" fill="#fff"/>
      <path id="Path_45" data-name="Path 45" d="M665.776-1089.937a16.986,16.986,0,0,0-1.05-2l-3.686-6.31h-2.553v12.32h2.319v-8.328a18.388,18.388,0,0,0,1.317,2.586l3.387,5.742h2.568v-12.32h-2.3Z" fill="#fff"/>
      <rect id="Rectangle_6" data-name="Rectangle 6" width="2.368" height="12.32" transform="translate(670.442 -1098.244)" fill="#fff"/>
      <path id="Path_46" data-name="Path 46" d="M680.1-1087.959c-1.886,0-3-1.407-3-4.182,0-2.586.834-4.127,2.819-4.127a4.3,4.3,0,0,1,2.569.875l.884-2a6.012,6.012,0,0,0-3.569-1.121c-2.72,0-5.172,1.6-5.172,6.521,0,3.594,1.418,6.331,5.238,6.331a6.148,6.148,0,0,0,3.586-1.235l-.917-1.9a3.98,3.98,0,0,1-2.435.837" fill="#fff"/>
      <rect id="Rectangle_7" data-name="Rectangle 7" width="2.368" height="12.32" transform="translate(684.833 -1098.244)" fill="#fff"/>
      <path id="Path_47" data-name="Path 47" d="M693.371-1098.244h-3.786v12.32h2.368v-4.126h1.368a3.95,3.95,0,0,0,4.32-4.239c0-2.244-1.317-3.955-4.27-3.955m-.283,6.026h-1.135v-3.859h1.386a1.673,1.673,0,0,1,1.866,1.862c0,1.541-.85,2-2.117,2" fill="#fff"/>
      <path id="Path_48" data-name="Path 48" d="M701.008-1098.245l-3.886,12.168v.152h2.485l.851-2.948h4l.866,2.948h2.52v-.152l-3.887-12.168Zm.084,7.206,1.351-4.7,1.384,4.7Z" fill="#fff"/>
      <path id="Path_49" data-name="Path 49" d="M711.614-1098.244h-2.368v12.32h7.273v-2.32h-4.905Z" fill="#fff"/>
      <rect id="Rectangle_8" data-name="Rectangle 8" width="2.368" height="12.32" transform="translate(717.932 -1098.244)" fill="#fff"/>
      <path id="Path_50" data-name="Path 50" d="M721.717-1095.944h3.453v10.02h2.368v-10.02h3.37v-2.3h-9.191Z" fill="#fff"/>
      <path id="Path_51" data-name="Path 51" d="M738.962-1098.244l-2.536,4.752-2.436-4.752h-2.668v.152l3.9,7.111v5.057h2.369v-5.134l3.937-7.034v-.152Z" fill="#fff"/>
    </g>
  </g>
</svg>
