<svg id="noun-food-3407707" xmlns="http://www.w3.org/2000/svg" width="44.036" height="45.466" viewBox="0 0 44.036 45.466">
  <path id="Path_483" data-name="Path 483" d="M134.115,14.6a1.23,1.23,0,0,0-1.867.144l-11.489,15.75-5.17,6.894-3.83-5.122a4.674,4.674,0,0,0,.574-6.128L103.956,14.6a1.4,1.4,0,0,0-2.25,1.676L108.6,25.75a.679.679,0,0,1-.144.91l-1.2.862a.679.679,0,0,1-.91-.144l-6.894-9.526a1.4,1.4,0,0,0-2.25,1.675l6.894,9.479a.679.679,0,0,1-.144.91l-1.2.862a.679.679,0,0,1-.91-.144l-6.894-9.479a1.4,1.4,0,1,0-2.25,1.676l8.33,11.489a4.661,4.661,0,0,0,6.175,1.245l4.691,6.7-9.048,12.064a3.223,3.223,0,1,0,5.218,3.782l7.516-10.675L123.1,58.111a3.223,3.223,0,1,0,5.218-3.782l-9.1-12.064,3.064-4.356,1.053.766a3.911,3.911,0,0,0,5.553-1.053l2.537-3.973a36.722,36.722,0,0,0,4.739-11.106,8.31,8.31,0,0,0-2.059-7.946Z" transform="translate(-92.421 -14.024)" fill="#fff"/>
</svg>
