<svg xmlns="http://www.w3.org/2000/svg" width="123.878" height="113.293" viewBox="0 0 123.878 113.293">
  <g id="Group_9" data-name="Group 9" transform="translate(194.661 288.815)">
    <g id="Group_8" data-name="Group 8">
      <g id="Group_5" data-name="Group 5">
        <g id="Group_2" data-name="Group 2">
          <path id="Path_1" data-name="Path 1" d="M-87.162-181.316h-57.922v5.448h63.37v-7.889h-5.448Z" fill="#b07c35"/>
          <path id="Path_2" data-name="Path 2" d="M-194.661-288.815v112.947h26.135v-5.448h-20.687V-283.367H-87.162v34.187l5.448,1.534v-41.169Z" fill="#b07c35"/>
        </g>
        <g id="Group_4" data-name="Group 4">
          <g id="Group_3" data-name="Group 3">
            <path id="Path_3" data-name="Path 3" d="M-105.566-200.23h-2.081a.27.27,0,0,1-.3-.307v-7.922a.27.27,0,0,1,.3-.306h2.154a3.3,3.3,0,0,1,2.093.544,2.175,2.175,0,0,1,.669,1.782v3.87a2.14,2.14,0,0,1-.7,1.781A3.391,3.391,0,0,1-105.566-200.23Zm1.229-2.351v-3.894a.994.994,0,0,0-.25-.759,1.2,1.2,0,0,0-.833-.233h-.888v5.865h.815a1.358,1.358,0,0,0,.882-.232A.931.931,0,0,0-104.337-202.581Z" fill="#fff"/>
            <path id="Path_4" data-name="Path 4" d="M-99.824-202.385v-6.074a.27.27,0,0,1,.3-.306h1.035a.27.27,0,0,1,.3.306v6.037a1.007,1.007,0,0,0,.231.741,1.092,1.092,0,0,0,.779.226,1.192,1.192,0,0,0,.8-.226.948.948,0,0,0,.255-.741v-6.037a.269.269,0,0,1,.3-.306h1.034a.269.269,0,0,1,.3.306v6.074q0,2.3-2.689,2.3h-.06a3.009,3.009,0,0,1-1.947-.54A2.152,2.152,0,0,1-99.824-202.385Z" fill="#fff"/>
            <path id="Path_5" data-name="Path 5" d="M-88.873-200.23h-2.3a.27.27,0,0,1-.3-.307v-7.922a.269.269,0,0,1,.3-.306h2.02a3.307,3.307,0,0,1,2.086.508,2.17,2.17,0,0,1,.614,1.757v.184a1.5,1.5,0,0,1-.766,1.518,1.73,1.73,0,0,1,1.1,1.862v.392a2.19,2.19,0,0,1-.64,1.8A3.383,3.383,0,0,1-88.873-200.23Zm.839-6.013v-.343a.932.932,0,0,0-.231-.734,1.332,1.332,0,0,0-.839-.2h-.755v2.229h.755a1.3,1.3,0,0,0,.833-.2A.96.96,0,0,0-88.034-206.243Zm.329,3.686V-203a1.068,1.068,0,0,0-.244-.809,1.343,1.343,0,0,0-.888-.22h-1.022v2.449h1.046a1.392,1.392,0,0,0,.858-.2A.97.97,0,0,0-87.705-202.557Z" fill="#fff"/>
            <path id="Path_6" data-name="Path 6" d="M-78.364-200.281l-1.038.11a.371.371,0,0,1-.223-.031c-.046-.028-.075-.1-.091-.214l-.331-1.737h-2.074l-.324,1.752a.268.268,0,0,1-.341.233l-1.036-.11a.418.418,0,0,1-.233-.082.156.156,0,0,1-.032-.159l1.7-7.948a.35.35,0,0,1,.1-.232.4.4,0,0,1,.253-.066h1.9a.329.329,0,0,1,.359.308l1.665,7.873c.025.1.017.177-.023.217A.41.41,0,0,1-78.364-200.281Zm-1.91-3.06-.788-4.138-.056,0-.833,4.14Z" fill="#fff"/>
            <path id="Path_7" data-name="Path 7" d="M-75.624-200.537v-7.922a.269.269,0,0,1,.3-.306h1.034a.269.269,0,0,1,.3.306v7.922a.27.27,0,0,1-.3.307H-75.32A.27.27,0,0,1-75.624-200.537Z" fill="#fff"/>
            <path id="Path_8" data-name="Path 8" d="M-126.213-187.459l-.085-.772a.258.258,0,0,1,.049-.214.32.32,0,0,1,.243-.031,11.114,11.114,0,0,0,1.838.208,1.584,1.584,0,0,0,.961-.214,1.039,1.039,0,0,0,.267-.838v-.27a1.3,1.3,0,0,0-.2-.832,1.471,1.471,0,0,0-.784-.368l-.207-.049a6.486,6.486,0,0,1-.9-.245,2.541,2.541,0,0,1-.645-.361,1.287,1.287,0,0,1-.451-.643,3.287,3.287,0,0,1-.133-1.017v-.306a2.1,2.1,0,0,1,.632-1.738,3.069,3.069,0,0,1,1.923-.5,6.141,6.141,0,0,1,1.5.171.464.464,0,0,1,.231.122.412.412,0,0,1,.073.234l.073.685a.273.273,0,0,1-.03.221q-.056.062-.225.024a7.127,7.127,0,0,0-1.5-.159,1.29,1.29,0,0,0-.81.208.927.927,0,0,0-.262.759v.2a.992.992,0,0,0,.2.7,1.518,1.518,0,0,0,.761.331l.195.049a6.776,6.776,0,0,1,.967.269,2.311,2.311,0,0,1,.651.392,1.367,1.367,0,0,1,.426.679,3.967,3.967,0,0,1,.121,1.072v.4a2.351,2.351,0,0,1-.626,1.874,3.263,3.263,0,0,1-2.087.526,7.509,7.509,0,0,1-1.874-.208A.355.355,0,0,1-126.213-187.459Z" fill="#fff"/>
            <path id="Path_9" data-name="Path 9" d="M-118.621-189.173v-4.2a2.112,2.112,0,0,1,.693-1.768,3.353,3.353,0,0,1,2.093-.546h.085a3.162,3.162,0,0,1,2.044.552,2.153,2.153,0,0,1,.669,1.762v4.2a2.012,2.012,0,0,1-1.459,2.155.664.664,0,0,0,.17.532.848.848,0,0,0,.547.141,4.664,4.664,0,0,0,.73-.073.256.256,0,0,1,.226.042.282.282,0,0,1,.042.239l-.085.54a.4.4,0,0,1-.256.342,3.271,3.271,0,0,1-.949.11,1.689,1.689,0,0,1-1.91-1.726h-.28a2.9,2.9,0,0,1-1.752-.6A2.144,2.144,0,0,1-118.621-189.173Zm2.713.942h.073a1.35,1.35,0,0,0,.882-.233.924.924,0,0,0,.274-.746v-4.213a.973.973,0,0,0-.243-.74,1.224,1.224,0,0,0-.84-.227h-.085a1.3,1.3,0,0,0-.864.233.923.923,0,0,0-.267.734v4.213a.988.988,0,0,0,.243.746A1.176,1.176,0,0,0-115.908-188.231Z" fill="#fff"/>
            <path id="Path_10" data-name="Path 10" d="M-110.1-189.161v-6.073a.269.269,0,0,1,.3-.306h1.034a.269.269,0,0,1,.3.306v6.036a1.006,1.006,0,0,0,.231.741,1.092,1.092,0,0,0,.779.226,1.188,1.188,0,0,0,.8-.226.947.947,0,0,0,.256-.741v-6.036a.269.269,0,0,1,.3-.306h1.034a.269.269,0,0,1,.3.306v6.073q0,2.3-2.689,2.3h-.061a3.008,3.008,0,0,1-1.946-.539A2.154,2.154,0,0,1-110.1-189.161Z" fill="#fff"/>
            <path id="Path_11" data-name="Path 11" d="M-96.736-187.056l-1.038.11a.393.393,0,0,1-.224-.031.3.3,0,0,1-.09-.214l-.331-1.738h-2.074l-.324,1.752a.268.268,0,0,1-.341.233l-1.036-.11a.427.427,0,0,1-.233-.081.16.16,0,0,1-.032-.159l1.695-7.949a.351.351,0,0,1,.105-.232.4.4,0,0,1,.253-.065h1.9a.326.326,0,0,1,.358.307l1.667,7.873a.233.233,0,0,1-.024.218A.422.422,0,0,1-96.736-187.056Zm-1.91-3.06-.788-4.139h-.055l-.833,4.14Z" fill="#fff"/>
            <path id="Path_12" data-name="Path 12" d="M-94-187.312v-7.922a.269.269,0,0,1,.3-.306h2.166a3.256,3.256,0,0,1,2.081.514,2.367,2.367,0,0,1,.608,1.874v.318a2.337,2.337,0,0,1-.274,1.212,1.97,1.97,0,0,1-.845.734,2.917,2.917,0,0,1,.695,1.245l.779,2.289c.064.177,0,.277-.2.3l-1.042.1a.313.313,0,0,1-.37-.27l-.71-2.277a1.537,1.537,0,0,0-.341-.685,1.086,1.086,0,0,0-.694-.161h-.51v3.038a.27.27,0,0,1-.305.306h-1.034A.27.27,0,0,1-94-187.312Zm1.643-4.3h.815a1.387,1.387,0,0,0,.863-.2,1.038,1.038,0,0,0,.244-.814v-.6a1.14,1.14,0,0,0-.231-.844,1.371,1.371,0,0,0-.888-.209h-.8Z" fill="#fff"/>
            <path id="Path_13" data-name="Path 13" d="M-85.965-187.312v-7.922a.343.343,0,0,1,.066-.24.337.337,0,0,1,.238-.066h3.991a.383.383,0,0,1,.242.06.349.349,0,0,1,.1.221l.085.71c.024.2-.072.306-.292.306h-2.786v2.155h2.141a.264.264,0,0,1,.3.294v.71a.264.264,0,0,1-.3.294h-2.141v2.412h2.883c.227,0,.325.1.293.306l-.123.784a.294.294,0,0,1-.09.221.413.413,0,0,1-.25.061h-4.051A.269.269,0,0,1-85.965-187.312Z" fill="#fff"/>
            <path id="Path_14" data-name="Path 14" d="M-78.617-187.459l-.085-.772a.258.258,0,0,1,.048-.214.323.323,0,0,1,.244-.031,11.1,11.1,0,0,0,1.837.208,1.582,1.582,0,0,0,.961-.214,1.039,1.039,0,0,0,.267-.838v-.27a1.3,1.3,0,0,0-.2-.832,1.471,1.471,0,0,0-.785-.368l-.206-.049a6.546,6.546,0,0,1-.9-.245,2.541,2.541,0,0,1-.645-.361,1.291,1.291,0,0,1-.45-.643,3.287,3.287,0,0,1-.133-1.017v-.306a2.1,2.1,0,0,1,.632-1.738,3.064,3.064,0,0,1,1.922-.5,6.155,6.155,0,0,1,1.5.171.473.473,0,0,1,.231.122.42.42,0,0,1,.073.234l.073.685a.277.277,0,0,1-.03.221c-.037.041-.112.049-.226.024a7.113,7.113,0,0,0-1.5-.159,1.289,1.289,0,0,0-.809.208.927.927,0,0,0-.262.759v.2a.987.987,0,0,0,.2.7,1.514,1.514,0,0,0,.76.331l.195.049a6.776,6.776,0,0,1,.967.269,2.3,2.3,0,0,1,.651.392,1.361,1.361,0,0,1,.427.679,4.008,4.008,0,0,1,.121,1.072v.4a2.351,2.351,0,0,1-.626,1.874,3.266,3.266,0,0,1-2.088.526,7.514,7.514,0,0,1-1.874-.208A.353.353,0,0,1-78.617-187.459Z" fill="#fff"/>
          </g>
        </g>
        <rect id="Rectangle_3" data-name="Rectangle 3" width="20.826" height="20.826" transform="translate(-182.263 -262.693) rotate(-45)" fill="#e3001b"/>
      </g>
      <g id="Group_7" data-name="Group 7">
        <g id="Group_6" data-name="Group 6">
          <path id="Path_15" data-name="Path 15" d="M-132.44-243a24.729,24.729,0,0,1,3.344,6.687,19.469,19.469,0,0,1,.581,3.2,18.075,18.075,0,0,1-2.471,8.14c-.388.824-7.2,5.792-22.676,6.313-6.95.233-16.5-.824-18.853-2.471q-6.106-3.126-6.1-10.612a25.207,25.207,0,0,1,2.034-9.157q2.326.435,2.326.872a13.413,13.413,0,0,0-.726,4.07v.435q0,6.978,10.466,9.013c12.159,2.508,26.12-1.805,31.645-3.55a.129.129,0,0,1,.145-.146,71.945,71.945,0,0,0-3.489-7.268A33.161,33.161,0,0,1-132.73-243Zm-32.7,5.55v.291a39.08,39.08,0,0,1,5.088,4.36,38.542,38.542,0,0,0,3.488-4.36,32.694,32.694,0,0,0-5.087-4.652A53.252,53.252,0,0,1-165.138-237.453Zm8.576-.436,5.088,4.651h.145v-.145a51.487,51.487,0,0,0,3.344-4.216,45,45,0,0,0-4.943-4.651Q-153.363-241.851-156.562-237.889Z" fill="#fff"/>
          <path id="Path_16" data-name="Path 16" d="M-117.105-226.012h-.617q-8.467,0-8.612-9.594,0-1.78-.073-4.216-.11-2.869-.255-5.887c-.242-5.16-.569-6.041-.98-9.991a55.959,55.959,0,0,1,4.178-4.033l.509.254q.4,3.525.546,8.177c.071,2.229.108,1.257.108,4.43q0,2-.037,4.689-.036,2.652-.036,4.033,0,2.689,1.127,3.779a5.013,5.013,0,0,0,3.634,1.09h.508Z" fill="#fff"/>
          <path id="Path_17" data-name="Path 17" d="M-107.841-233.281v7.269h-11.713a2.14,2.14,0,0,1-1.926-1.163,4.675,4.675,0,0,1-.617-2.472,4.672,4.672,0,0,1,.617-2.47,2.139,2.139,0,0,1,1.926-1.164Z" fill="#fff"/>
          <path id="Path_18" data-name="Path 18" d="M-90.7-238.223a30.228,30.228,0,0,0-9.23-1.926,5.521,5.521,0,0,0-3.017.654l-1.672,3.816h-.726l-2.363-4.615a7.753,7.753,0,0,1,2.871-4.942,8.148,8.148,0,0,1,5.052-1.563q3.453,0,10.066,2.507a27.11,27.11,0,0,0,8.649,1.818l.073,5.233a9.044,9.044,0,0,0-6.214,2.18,39.026,39.026,0,0,1-9.377,6.687,29.585,29.585,0,0,1-12.5,2.362h-.508a2.142,2.142,0,0,1-1.927-1.163,4.684,4.684,0,0,1-.617-2.472,4.682,4.682,0,0,1,.617-2.47,2.141,2.141,0,0,1,1.927-1.164h.508a41.211,41.211,0,0,0,9.922-1.017,28.5,28.5,0,0,0,8.467-3.743Z" fill="#fff"/>
          <path id="Path_19" data-name="Path 19" d="M-106.078-215.441h-.617q-8.469,0-8.613-9.594,0-1.779-.073-4.215-.11-2.869-.254-5.887-.364-7.74-.981-13.665a55.967,55.967,0,0,1,4.178-4.033l.51.255q.4,3.523.545,8.176.108,3.344.109,8.1,0,2-.037,4.689-.036,2.653-.036,4.034,0,2.688,1.126,3.778a5.014,5.014,0,0,0,3.634,1.091h.509Z" fill="#fff"/>
          <path id="Path_20" data-name="Path 20" d="M-107.744-222.745h32.6q3.051-.074,3.706,1.944a15.488,15.488,0,0,1,.654,4.761,10.581,10.581,0,0,1-1.017,4.778h-.146q0-2.544-1.417-3.4a7.361,7.361,0,0,0-3.816-.854h-30.565C-109.2-215.852-109.2-222.31-107.744-222.745Z" fill="#fff"/>
          <path id="Path_21" data-name="Path 21" d="M-165.95-208.264c8.43.485,20.76.727,25.218.727h2.471v7.123h-6.4c-1.115,0-12.913-.146-23.62-.436a11.152,11.152,0,0,0-7.851,3.343,1.7,1.7,0,0,0-.29.872q1.452,2.763,10.467,2.762c11.8-.194,24.806-.29,27.254-.29l.144.29a72.067,72.067,0,0,1-5.814,6.1c-12.186.388-24.71.581-25.8.581q-7.923,0-10.465-3.779a5.706,5.706,0,0,1-.437-2.035q0-5.341,7.414-12.355A13.559,13.559,0,0,1-165.95-208.264Zm4.214,23.731a32.773,32.773,0,0,1,5.087,4.651,38.478,38.478,0,0,1-3.488,4.36,39.306,39.306,0,0,0-5.089-4.36v-.29A53.441,53.441,0,0,0-161.736-184.533Zm8.721-.437a44.938,44.938,0,0,1,4.942,4.652,51.288,51.288,0,0,1-3.343,4.215v.146h-.145l-5.088-4.652Q-153.451-184.571-153.015-184.97Z" fill="#fff"/>
          <path id="Path_22" data-name="Path 22" d="M-130.505-220.879c2.447,4.41,3.508,6.6,3.508,8.945a15.325,15.325,0,0,1-1.49,6.614,8.014,8.014,0,0,1-3.561,3.707,17.891,17.891,0,0,1-7.341,1.235h-.508a2.139,2.139,0,0,1-1.926-1.162,4.675,4.675,0,0,1-.617-2.472,4.672,4.672,0,0,1,.617-2.47,2.137,2.137,0,0,1,1.926-1.164h.8a28.193,28.193,0,0,0,5.523-.508q2.4-.437,2.4-.909a10.007,10.007,0,0,0-1.163-2.944c-.678-1.38-1.317-1.676-2.238-3.276a52.636,52.636,0,0,1,3.707-5.668Zm-6.957,26.788a41.157,41.157,0,0,1,5.088,3.78,10.823,10.823,0,0,0,3.2-4.216v-.146a23.042,23.042,0,0,0-5.089-4.215l-3.2,4.506Z" fill="#fff"/>
          <path id="Path_23" data-name="Path 23" d="M-123.89-223.211h.28q11.757,6.852,11.756,13.513v1.769q-.666,4.514-1.96,5.051-2.064,2.4-10.356,2.4-3.987,0-5.178,2.146h-.14v-.252q0-5.337,3.079-6.947,1.189-.5,6.718-.757a33.434,33.434,0,0,0,4.618-1.516q-.35-2.209-4.2-5.808-2.344-1.611-6.3-3.789l-.42-.632v-.252Q-125.989-219.738-123.89-223.211Z" fill="#fff"/>
        </g>
      </g>
    </g>
  </g>
</svg>
