<svg xmlns="http://www.w3.org/2000/svg" width="46.56" height="46.56" viewBox="0 0 46.56 46.56">
  <path id="noun-market-3266557" d="M74.356,0a1.456,1.456,0,0,0-1.418,1.117L70.292,12.362h45.955L113.6,1.117A1.456,1.456,0,0,0,112.183,0ZM70,15.272V16.7a5.842,5.842,0,0,0,5.82,5.823,5.776,5.776,0,0,0,4.362-2.02,5.719,5.719,0,0,0,8.724,0,5.728,5.728,0,0,0,8.733,0,5.728,5.728,0,0,0,8.733,0,5.792,5.792,0,0,0,10.188-3.8V15.272ZM88.9,24.079a7.7,7.7,0,0,1-8.722,0,8.381,8.381,0,0,1-4.365,1.353,8.6,8.6,0,0,1-3.47-.733V45.1a1.455,1.455,0,0,0,1.461,1.461h9.529V33.309A1.387,1.387,0,0,1,84.8,31.86h16.949a1.455,1.455,0,0,1,1.461,1.45V46.56h9.537a1.455,1.455,0,0,0,1.449-1.461V24.707a8.6,8.6,0,0,1-3.459.728,8.378,8.378,0,0,1-4.365-1.355,7.711,7.711,0,0,1-8.733,0,7.711,7.711,0,0,1-8.733,0Zm1.81,3.623q.07,0,.139,0h4.834a1.456,1.456,0,0,1,0,2.913H90.852a1.458,1.458,0,0,1-.139-2.913ZM86.246,34.77V46.56h5.575V34.77Zm8.486,0V46.56H100.3V34.77Z" transform="translate(-69.996 0)" fill="#fff"/>
</svg>
