<svg xmlns="http://www.w3.org/2000/svg" width="45.97" height="45.969" viewBox="0 0 45.97 45.969">
  <path id="noun-sports-2819579" d="M155.738,53.565v-6.9H123.56v6.9h-6.9v9.194a9.193,9.193,0,0,0,7.815,9.194,11.493,11.493,0,0,0,7.907,6.689l-1.586,9.4h-4.942v4.6H153.44v-4.6H148.5l-1.586-9.516h0a11.493,11.493,0,0,0,7.907-6.574,9.193,9.193,0,0,0,7.815-9.194V53.565ZM123.56,66.736a4.6,4.6,0,0,1-2.3-3.976v-4.6h2.3Zm16.089,2.919a6.9,6.9,0,1,1,4.876-2.02A6.894,6.894,0,0,1,139.649,69.655Zm18.388-6.9a4.6,4.6,0,0,1-2.3,3.976V58.162h2.3Z" transform="translate(-116.664 -46.67)" fill="#fff"/>
</svg>
