<svg id="vuesax_linear_direct-send" data-name="vuesax/linear/direct-send" xmlns="http://www.w3.org/2000/svg" width="24" height="24" viewBox="0 0 24 24">
  <g id="direct-send">
    <path id="Vector" d="M2,7V0L0,2" transform="translate(10 2)" fill="none" stroke="#292d32" stroke-linecap="round" stroke-linejoin="round" stroke-width="1.5"/>
    <path id="Vector-2" data-name="Vector" d="M0,0,2,2" transform="translate(12 2)" fill="none" stroke="#292d32" stroke-linecap="round" stroke-linejoin="round" stroke-width="1.5"/>
    <path id="Vector-3" data-name="Vector" d="M0,0H4.41A.988.988,0,0,1,5.3.55L6.47,2.89A2,2,0,0,0,8.26,4h3.53a2,2,0,0,0,1.79-1.11L14.75.55A1,1,0,0,1,15.64,0H20" transform="translate(1.98 13)" fill="none" stroke="#292d32" stroke-linecap="round" stroke-linejoin="round" stroke-width="1.5"/>
    <path id="Vector-4" data-name="Vector" d="M5,0C1.46.52,0,2.6,0,6.87v3c0,5,2,7,7,7h6c5,0,7-2,7-7v-3C20,2.6,18.54.52,15,0" transform="translate(2 5.13)" fill="none" stroke="#292d32" stroke-linecap="round" stroke-linejoin="round" stroke-width="1.5"/>
    <path id="Vector-5" data-name="Vector" d="M0,0H24V24H0Z" fill="none" opacity="0"/>
  </g>
</svg>
